<?xml version="1.0" encoding="UTF-8" standalone="no"?>
<!-- Created with Inkscape (http://www.inkscape.org/) -->

<svg
   xmlns:dc="http://purl.org/dc/elements/1.1/"
   xmlns:cc="http://creativecommons.org/ns#"
   xmlns:rdf="http://www.w3.org/1999/02/22-rdf-syntax-ns#"
   xmlns:svg="http://www.w3.org/2000/svg"
   xmlns="http://www.w3.org/2000/svg"
   xmlns:sodipodi="http://sodipodi.sourceforge.net/DTD/sodipodi-0.dtd"
   xmlns:inkscape="http://www.inkscape.org/namespaces/inkscape"
   width="268px"
   height="446px"
   viewBox="0 0 268 446"
   version="1.1"
   id="SVGRoot"
   inkscape:version="0.92.5 (2060ec1f9f, 2020-04-08)"
   sodipodi:docname="Vsmart logo.svg">
  <defs
     id="defs835" />
  <sodipodi:namedview
     id="base"
     pagecolor="#ffffff"
     bordercolor="#666666"
     borderopacity="1.0"
     inkscape:pageopacity="0.0"
     inkscape:pageshadow="2"
     inkscape:zoom="1.6001569"
     inkscape:cx="-11.881188"
     inkscape:cy="226.9851"
     inkscape:document-units="px"
     inkscape:current-layer="layer1"
     showgrid="false"
     inkscape:window-width="1920"
     inkscape:window-height="1001"
     inkscape:window-x="-9"
     inkscape:window-y="-9"
     inkscape:window-maximized="1" />
  <metadata
     id="metadata838">
    <rdf:RDF>
      <cc:Work
         rdf:about="">
        <dc:format>image/svg+xml</dc:format>
        <dc:type
           rdf:resource="http://purl.org/dc/dcmitype/StillImage" />
        <dc:title></dc:title>
      </cc:Work>
    </rdf:RDF>
  </metadata>
  <g
     inkscape:label="Layer 1"
     inkscape:groupmode="layer"
     id="layer1">
    <path
       style="fill:#da5647;fill-opacity:1;stroke:none;stroke-width:1.80358648px;stroke-linecap:butt;stroke-linejoin:miter;stroke-opacity:1"
       d="m 106.64157,1.9944602 c 0,0 -47.626124,5.0437334 -51.828426,76.4833408 0,0 -0.562222,38.939629 23.531128,74.799559 l 38.942738,60.23343 c 0,0 31.65826,42.58565 30.53763,78.44546 0,0 0.27865,24.65304 -9.80697,48.18608 0,0 -1.67974,-36.42047 -17.08828,-59.67339 L 88.151298,229.48241 c 0,0 -5.963104,-10.32775 -15.784909,-25.78918 C 51.507014,170.85647 19.568458,114.66302 34.984238,91.486894 c 0,0 -32.1855251,20.522966 -33.697477,65.450466 -1.51200622,44.92747 31.319715,90.285 31.319715,90.285 0,0 60.479185,90.93649 70.847124,120.96008 0,0 17.27958,36.93428 12.31162,75.16592 L 168.97451,360.172 c 0,0 34.59912,-47.20314 30.39681,-79.98133 0,0 2.24148,-35.30029 -23.81299,-81.80605 -26.0544,-46.50581 -64.99602,-108.419516 -64.99602,-108.419516 0,0 -22.411402,-33.339621 -21.290809,-57.432966 C 90.392175,8.4387876 106.64157,1.9944602 106.64157,1.9944602 Z M 221.31379,101.40308 c -14.50298,0.27087 -34.79484,6.24639 -39.87266,36.188 0,0 -5.32078,29.13336 12.8893,58.54961 0,0 9.80567,15.9723 22.69279,32.78162 12.88719,16.80931 5.88278,51.82844 5.88278,51.82844 0,0 -6.16278,40.90149 -20.17056,68.35663 l 42.30324,-66.95813 c 0,0 21.01042,-27.73609 21.85092,-53.79058 0,0 -0.84099,-17.36886 -12.60752,-34.45835 -11.76651,-17.08941 -37.53919,-46.50431 -36.69876,-68.91676 0,0 -0.84064,-18.7727 19.0504,-21.85437 0,0 -6.61817,-1.88862 -15.31993,-1.72611 z"
       id="path826"
       inkscape:connector-curvature="0" />
  </g>
</svg>
